<svg height='100px' width='100px'  fill="#000000" xmlns="http://www.w3.org/2000/svg" xmlns:xlink="http://www.w3.org/1999/xlink" version="1.1" x="0px" y="0px" viewBox="0 0 44 44" style="enable-background:new 0 0 44 44;" xml:space="preserve"><g><g><path d="M38.4,1.3C37.9,0.5,36.9,0,36,0c-1.6,0-3,1.3-3,3v25v13c0,1.7,1.3,3,3,3c1.7,0,3-1.3,3-3V28v-2.4c0-0.5,0.3-0.9,0.8-1    l0.8-0.2c1.4-0.3,2.4-1.5,2.4-2.9v-5.7C43,10.6,41.4,5.6,38.4,1.3z M37,41c0,0.6-0.4,1-1,1c-0.6,0-1-0.4-1-1V28c0-0.6,0.4-1,1-1    c0.6,0,1,0.4,1,1V41z M41,21.5c0,0.5-0.3,0.9-0.8,1l-0.8,0.2C38.1,23,37.2,24,37,25.2c-0.3-0.1-0.7-0.2-1-0.2    c-0.4,0-0.7,0.1-1,0.2V3c0-0.5,0.4-1,1-1c0.3,0,0.6,0.2,0.8,0.4c2.8,4,4.2,8.6,4.2,13.4V21.5z"></path><path d="M12.3,4.6c-0.1-0.5-0.2-2.8-0.3-3.6c0-0.6-0.5-1-1.1-0.9c-0.6,0-1,0.5-0.9,1.1c0,0.3,0.2,3.1,0.3,3.8L11,10    c0,0.1,0,0.2,0,0.3c0,0.8-0.3,1.5-0.9,2c-0.3,0.3-0.7,0.6-1.2,0.7c-0.3,0.1-0.6,0.3-0.9,0.4V1c0-0.6-0.4-1-1-1S6,0.5,6,1v12.5    c-0.3-0.2-0.6-0.3-0.9-0.4c-0.5-0.1-0.9-0.4-1.2-0.7c-0.7-0.6-1-1.5-0.9-2.4l0.7-5.2C3.8,4.2,4,1.4,4,1.1C4,0.5,3.6,0,3.1,0    C2.5,0,2,0.4,2,0.9C1.9,1.8,1.8,4.1,1.7,4.6L1,9.7c-0.2,1.5,0.4,3,1.5,4.1c0.6,0.5,1.2,0.9,2,1.2C5.4,15.3,6,16.1,6,17v6.7l-1,1    c-0.6,0.6-1,1.4-1,2.2V41c0,1.7,1.3,3,3,3s3-1.3,3-3V27c0-0.8-0.3-1.6-0.9-2.1L8,23.7V17c0-0.9,0.6-1.7,1.5-2    c0.7-0.2,1.4-0.6,2-1.2c1-0.9,1.5-2.2,1.5-3.5c0-0.2,0-0.4,0-0.6L12.3,4.6z M8,41c0,0.6-0.4,1-1,1s-1-0.4-1-1V26.9    c0-0.3,0.1-0.5,0.3-0.7L7,25.5l0.7,0.7C7.9,26.5,8,26.7,8,27V41z"></path><path d="M28.2,5.5C27.5,2.1,26.2,0,22,0s-5.5,2.1-6.2,5.5c-0.4,1.7-0.8,6.6-0.8,6.9c0,2.8,2,4.9,5.2,5.5c0.5,0.1,0.8,0.5,0.8,1    v4.9l-1,1c-0.6,0.6-1,1.4-1,2.2V41c0,1.7,1.3,3,3,3c1.7,0,3-1.3,3-3V27c0-0.8-0.3-1.6-0.9-2.1L23,23.7v-4.9c0-0.5,0.3-0.9,0.8-1    c3.2-0.6,5.2-2.7,5.2-5.5c0,0,0,0,0-0.1C29,12.1,28.6,7.1,28.2,5.5z M23,41c0,0.6-0.4,1-1,1c-0.6,0-1-0.4-1-1V26.9    c0-0.3,0.1-0.5,0.3-0.7l0.7-0.6l0.7,0.7c0.2,0.2,0.3,0.4,0.3,0.7V41z M23.4,15.9c-0.6,0.1-1,0.3-1.4,0.7c-0.4-0.4-0.9-0.6-1.4-0.7    c-2.2-0.4-3.6-1.7-3.6-3.5c0,0,0.4-5,0.7-6.5C18.4,2.8,19.3,2,22,2s3.6,0.8,4.3,3.9c0.3,1.5,0.7,6,0.7,6.5    C27,14.2,25.7,15.5,23.4,15.9z"></path></g></g></svg>