<svg height='100px' width='100px'  fill="#000000" xmlns="http://www.w3.org/2000/svg" viewBox="0 0 48 48" x="0px" y="0px"><title>28-Dried food</title><g data-name="28-Dried food"><path d="M31,22H9a3,3,0,0,1,0-6H31a3,3,0,0,1,0,6ZM9,18a1,1,0,0,0,0,2H31a1,1,0,0,0,0-2Z"></path><path d="M31,48H9a3,3,0,0,1,0-6H31a3,3,0,0,1,0,6ZM9,44a1,1,0,0,0,0,2H31a1,1,0,0,0,0-2Z"></path><rect x="8" y="21" width="2" height="22"></rect><rect x="30" y="21" width="2" height="22"></rect><rect x="9" y="25" width="19" height="2"></rect><rect x="9" y="37" width="19" height="2"></rect><path d="M9,18c-2.851,0-5-3.869-5-9S6.149,0,9,0s5,3.869,5,9S11.851,18,9,18ZM9,2C7.584,2,6,4.993,6,9s1.584,7,3,7,3-2.993,3-7S10.416,2,9,2Z"></path><path d="M41,8H29a1,1,0,0,1-1-1V3a3,3,0,0,1,3-3h8a3,3,0,0,1,3,3V7A1,1,0,0,1,41,8ZM30,6H40V3a1,1,0,0,0-1-1H31a1,1,0,0,0-1,1Z"></path><path d="M28,17H26V14a1,1,0,0,1,.293-.707L30,9.586V7h2v3a1,1,0,0,1-.293.707L28,14.414Z"></path><path d="M41,41H34V39h7a1,1,0,0,0,1-1V14.414l-3.707-3.707A1,1,0,0,1,38,10V7h2V9.586l3.707,3.707A1,1,0,0,1,44,14V38A3,3,0,0,1,41,41Z"></path><rect x="35" y="18" width="8" height="2"></rect><rect x="35" y="29" width="8" height="2"></rect><rect x="31" y="4" width="2" height="3"></rect><rect x="34" y="4" width="2" height="3"></rect><rect x="37" y="4" width="2" height="3"></rect><path d="M18,13H16a3.564,3.564,0,0,1,1.293-2.707C17.783,9.8,18,9.562,18,9s-.217-.8-.707-1.293A3.564,3.564,0,0,1,16,5a3.564,3.564,0,0,1,1.293-2.707C17.783,1.8,18,1.562,18,1h2a3.564,3.564,0,0,1-1.293,2.707C18.217,4.2,18,4.438,18,5s.217.8.707,1.293a3.48,3.48,0,0,1,0,5.414C18.217,12.2,18,12.438,18,13Z"></path><path d="M23,13H21a3.564,3.564,0,0,1,1.293-2.707C22.783,9.8,23,9.562,23,9s-.217-.8-.707-1.293A3.564,3.564,0,0,1,21,5a3.564,3.564,0,0,1,1.293-2.707C22.783,1.8,23,1.562,23,1h2a3.564,3.564,0,0,1-1.293,2.707C23.217,4.2,23,4.438,23,5s.217.8.707,1.293a3.48,3.48,0,0,1,0,5.414C23.217,12.2,23,12.438,23,13Z"></path></g></svg>