<svg height='100px' width='100px'  fill="#000000" xmlns="http://www.w3.org/2000/svg" xmlns:xlink="http://www.w3.org/1999/xlink" version="1.1" x="0px" y="0px" viewBox="0 0 100 100" enable-background="new 0 0 100 100" xml:space="preserve"><g><path d="M80.788,0H19.211C10.967,0,5,12.464,5,22v56.421C5,88.481,10.066,100,16.842,100h66.314C89.935,100,95,88.481,95,78.421V22   C95,12.464,89.032,0,80.788,0z M90,26.003H10V22h80V26.003z M10,78v-4h80v4H10z M53,83h15.704c-0.427,5.279-1.295,9.464-1.935,12   H53V83z M47,95H33.547c-0.64-2.536-1.508-6.721-1.935-12H47V95z M31,69V31.053c0-0.017,0-0.036,0-0.053h38v38H31z M25,69H10V31h15   V69z M75,69V31h15v38H75z M47,17H31.164c0.423-5.447,1.365-9.688,1.981-12H47V17z M53,5h13.856c0.616,2.312,1.558,6.553,1.981,12   H53V5z M89.403,17H74.559c-0.374-5.163-1.185-9.309-1.846-12H80C83.176,5,87.777,10.167,89.403,17z M19,5h8.288   c-0.661,2.691-1.472,6.837-1.845,12h-14.94C11.88,10.167,15.825,5,19,5z M10.37,83h15.139c0.379,5.035,1.138,9.161,1.8,12H16.842   C14.644,95,11.443,89.766,10.37,83z M83.156,95h-10.15c0.662-2.839,1.421-6.965,1.8-12H89.63C88.557,89.766,85.356,95,83.156,95z"></path><path d="M52,35.745l-2-2.667l-2,2.667c-1.308,1.743-12.652,17.275-8.437,25.704c1.656,3.312,5.167,4.99,10.437,4.99   s8.782-1.679,10.438-4.99C64.652,53.021,53.308,37.488,52,35.745z M55.965,59.214c-0.739,1.477-2.746,2.226-5.965,2.226   s-5.226-0.749-5.964-2.226c-1.74-3.477,2.008-11.553,5.964-17.604C53.957,47.661,57.705,55.737,55.965,59.214z"></path></g></svg>