<svg height='100px' width='100px'  fill="#ffffff" xmlns:dc="http://purl.org/dc/elements/1.1/" xmlns:cc="http://creativecommons.org/ns#" xmlns:rdf="http://www.w3.org/1999/02/22-rdf-syntax-ns#" xmlns:svg="http://www.w3.org/2000/svg" xmlns="http://www.w3.org/2000/svg" xmlns:sodipodi="http://sodipodi.sourceforge.net/DTD/sodipodi-0.dtd" xmlns:inkscape="http://www.inkscape.org/namespaces/inkscape" viewBox="0 0 8.4666665 8.4666669" version="1.1" x="0px" y="0px"><g transform="translate(0,-288.53332)"><path style="color:#ffffff;font-style:normal;font-variant:normal;font-weight:normal;font-stretch:normal;font-size:medium;line-height:normal;font-family:sans-serif;text-indent:0;text-align:start;text-decoration:none;text-decoration-line:none;text-decoration-style:solid;text-decoration-color:#ffffff;letter-spacing:normal;word-spacing:normal;text-transform:none;direction:ltr;block-progression:tb;writing-mode:lr-tb;baseline-shift:baseline;text-anchor:start;white-space:normal;clip-rule:nonzero;display:inline;overflow:visible;visibility:visible;opacity:1;isolation:auto;mix-blend-mode:normal;color-interpolation:sRGB;color-interpolation-filters:linearRGB;solid-color:#ffffff;solid-opacity:1;fill:#ffffff;fill-opacity:1;fill-rule:evenodd;stroke:none;stroke-width:0.26458332px;stroke-linecap:butt;stroke-linejoin:miter;stroke-miterlimit:4;stroke-dasharray:none;stroke-dashoffset:0;stroke-opacity:1;color-rendering:auto;image-rendering:auto;shape-rendering:auto;text-rendering:auto;enable-background:accumulate" d="m 7.5917969,292.50586 -0.234375,0.125 0.3808593,0.7168 c 0.1312477,0.24791 0.1992177,0.52417 0.1992188,0.80468 l 0,2.18555 0.2636719,0 0,-2.18555 c -1.3e-6,-0.32365 -0.079034,-0.64169 -0.2304688,-0.92773 l -0.3789062,-0.71875 z"></path><path style="color:#ffffff;font-style:normal;font-variant:normal;font-weight:normal;font-stretch:normal;font-size:medium;line-height:normal;font-family:sans-serif;text-indent:0;text-align:start;text-decoration:none;text-decoration-line:none;text-decoration-style:solid;text-decoration-color:#ffffff;letter-spacing:normal;word-spacing:normal;text-transform:none;direction:ltr;block-progression:tb;writing-mode:lr-tb;baseline-shift:baseline;text-anchor:start;white-space:normal;clip-rule:nonzero;display:inline;overflow:visible;visibility:visible;opacity:1;isolation:auto;mix-blend-mode:normal;color-interpolation:sRGB;color-interpolation-filters:linearRGB;solid-color:#ffffff;solid-opacity:1;fill:#ffffff;fill-opacity:1;fill-rule:evenodd;stroke:none;stroke-width:0.26458335px;stroke-linecap:butt;stroke-linejoin:round;stroke-miterlimit:4;stroke-dasharray:none;stroke-dashoffset:0;stroke-opacity:1;color-rendering:auto;image-rendering:auto;shape-rendering:auto;text-rendering:auto;enable-background:accumulate" d="m 5.0976562,289.72852 c -0.2372712,0 -0.474031,0.0893 -0.6542968,0.26953 l -1.0292969,1.02929 c -0.2572059,0.25721 -0.2572105,0.67834 0,0.93555 l 0.9355469,0.93555 a 0.1323049,0.1323049 0 0 0 0.1875,0 l 0.6542968,-0.6543 c 0.1044343,-0.10443 0.2705658,-0.10443 0.375,0 l 1.1230469,1.12109 a 0.1323049,0.1323049 0 0 0 0.1855469,0 l 0.65625,-0.65429 c 0.2572023,-0.25721 0.2572105,-0.67834 0,-0.93555 l -1.7773438,-1.77734 c -0.1802704,-0.18028 -0.4189787,-0.26954 -0.65625,-0.26953 z m -0.4667968,0.45703 c 0.2594254,-0.25943 0.6761133,-0.25944 0.9355468,0 l 1.7773438,1.77734 c 0.1561057,0.15611 0.1561023,0.40444 0,0.56055 l -0.5625,0.5625 -1.0273438,-1.0293 c -0.2055444,-0.20554 -0.5425024,-0.20554 -0.7480468,0 l -0.5625,0.56055 -0.8417969,-0.8418 c -0.1561057,-0.15611 -0.1560987,-0.40445 0,-0.56055 l 1.0292969,-1.02929 z"></path><path style="color:#ffffff;font-style:normal;font-variant:normal;font-weight:normal;font-stretch:normal;font-size:medium;line-height:normal;font-family:sans-serif;text-indent:0;text-align:start;text-decoration:none;text-decoration-line:none;text-decoration-style:solid;text-decoration-color:#ffffff;letter-spacing:normal;word-spacing:normal;text-transform:none;direction:ltr;block-progression:tb;writing-mode:lr-tb;baseline-shift:baseline;text-anchor:start;white-space:normal;clip-rule:nonzero;display:inline;overflow:visible;visibility:visible;opacity:1;isolation:auto;mix-blend-mode:normal;color-interpolation:sRGB;color-interpolation-filters:linearRGB;solid-color:#ffffff;solid-opacity:1;fill:#ffffff;fill-opacity:1;fill-rule:evenodd;stroke:none;stroke-width:0.26458335px;stroke-linecap:butt;stroke-linejoin:miter;stroke-miterlimit:4;stroke-dasharray:none;stroke-dashoffset:0;stroke-opacity:1;color-rendering:auto;image-rendering:auto;shape-rendering:auto;text-rendering:auto;enable-background:accumulate" d="m 4.5371094,292.71094 -0.1875,0.1875 0.1875,0.1875 c 0.5155231,0.51552 1.3555706,0.51552 1.8710937,0 l 0.09375,-0.0937 -0.1875,-0.1875 -0.09375,0.0937 c -0.4144129,0.41441 -1.0816808,0.41441 -1.4960937,0 l -0.1875,-0.1875 z"></path><path style="color:#ffffff;font-style:normal;font-variant:normal;font-weight:normal;font-stretch:normal;font-size:medium;line-height:normal;font-family:sans-serif;text-indent:0;text-align:start;text-decoration:none;text-decoration-line:none;text-decoration-style:solid;text-decoration-color:#ffffff;letter-spacing:normal;word-spacing:normal;text-transform:none;direction:ltr;block-progression:tb;writing-mode:lr-tb;baseline-shift:baseline;text-anchor:start;white-space:normal;clip-rule:nonzero;display:inline;overflow:visible;visibility:visible;opacity:1;isolation:auto;mix-blend-mode:normal;color-interpolation:sRGB;color-interpolation-filters:linearRGB;solid-color:#ffffff;solid-opacity:1;fill:#ffffff;fill-opacity:1;fill-rule:evenodd;stroke:none;stroke-width:0.26458335px;stroke-linecap:round;stroke-linejoin:round;stroke-miterlimit:4;stroke-dasharray:none;stroke-dashoffset:0;stroke-opacity:1;color-rendering:auto;image-rendering:auto;shape-rendering:auto;text-rendering:auto;enable-background:accumulate" d="m 5.3554688,291.93678 a 0.1323049,0.1323049 0 0 0 -0.1308594,0.13476 l 0,0.66211 a 0.1328125,0.1328125 0 0 0 0.265625,0 l 0,-0.66211 a 0.1323049,0.1323049 0 0 0 -0.1347656,-0.13476 z"></path><path style="color:#ffffff;font-style:normal;font-variant:normal;font-weight:normal;font-stretch:normal;font-size:medium;line-height:normal;font-family:sans-serif;text-indent:0;text-align:start;text-decoration:none;text-decoration-line:none;text-decoration-style:solid;text-decoration-color:#ffffff;letter-spacing:normal;word-spacing:normal;text-transform:none;direction:ltr;block-progression:tb;writing-mode:lr-tb;baseline-shift:baseline;text-anchor:start;white-space:normal;clip-rule:nonzero;display:inline;overflow:visible;visibility:visible;opacity:1;isolation:auto;mix-blend-mode:normal;color-interpolation:sRGB;color-interpolation-filters:linearRGB;solid-color:#ffffff;solid-opacity:1;fill:#ffffff;fill-opacity:1;fill-rule:evenodd;stroke:none;stroke-width:0.26458332px;stroke-linecap:butt;stroke-linejoin:miter;stroke-miterlimit:4;stroke-dasharray:none;stroke-dashoffset:0;stroke-opacity:1;color-rendering:auto;image-rendering:auto;shape-rendering:auto;text-rendering:auto;enable-background:accumulate" d="m 7.0625,293.03516 -0.234375,0.125 0.2421875,0.44922 c 0.1349341,0.25059 0.2050778,0.52984 0.2050781,0.81445 l 0,1.91406 0.265625,0 0,-1.91406 c -4e-7,-0.32839 -0.082593,-0.65032 -0.2382812,-0.93945 L 7.0625,293.03516 Z"></path><path style="color:#ffffff;font-style:normal;font-variant:normal;font-weight:normal;font-stretch:normal;font-size:medium;line-height:normal;font-family:sans-serif;text-indent:0;text-align:start;text-decoration:none;text-decoration-line:none;text-decoration-style:solid;text-decoration-color:#ffffff;letter-spacing:normal;word-spacing:normal;text-transform:none;direction:ltr;block-progression:tb;writing-mode:lr-tb;baseline-shift:baseline;text-anchor:start;white-space:normal;clip-rule:nonzero;display:inline;overflow:visible;visibility:visible;opacity:1;isolation:auto;mix-blend-mode:normal;color-interpolation:sRGB;color-interpolation-filters:linearRGB;solid-color:#ffffff;solid-opacity:1;fill:#ffffff;fill-opacity:1;fill-rule:evenodd;stroke:none;stroke-width:0.26458332px;stroke-linecap:butt;stroke-linejoin:round;stroke-miterlimit:4;stroke-dasharray:none;stroke-dashoffset:0;stroke-opacity:1;color-rendering:auto;image-rendering:auto;shape-rendering:auto;text-rendering:auto;enable-background:accumulate" d="m 2.0507812,289.22266 -1.0136718,0.16211 a 0.13230489,0.13230489 0 0 0 -0.10546878,0.16796 l 0.19921878,0.66211 a 0.13230489,0.13230489 0 0 0 0.1464844,0.0918 l 0.703125,-0.10547 c 0.3728052,-0.0559 0.7536704,0.0117 1.0839843,0.19336 l 0.7734375,0.42578 0.1289063,-0.23047 -0.7753907,-0.42578 c -0.3810935,-0.2096 -0.8198828,-0.28913 -1.25,-0.22461 l -0.5917968,0.0879 -0.1210938,-0.40625 0.8632813,-0.13867 c 0.3892232,-0.0623 0.7880658,-5e-4 1.140625,0.17578 l 1.140625,0.57032 0.1171875,-0.23633 -1.1386719,-0.57031 c -0.4020199,-0.20102 -0.8569536,-0.27024 -1.3007813,-0.19922 z"></path><path style="color:#ffffff;font-style:normal;font-variant:normal;font-weight:normal;font-stretch:normal;font-size:medium;line-height:normal;font-family:sans-serif;text-indent:0;text-align:start;text-decoration:none;text-decoration-line:none;text-decoration-style:solid;text-decoration-color:#ffffff;letter-spacing:normal;word-spacing:normal;text-transform:none;direction:ltr;block-progression:tb;writing-mode:lr-tb;baseline-shift:baseline;text-anchor:start;white-space:normal;clip-rule:nonzero;display:inline;overflow:visible;visibility:visible;opacity:1;isolation:auto;mix-blend-mode:normal;color-interpolation:sRGB;color-interpolation-filters:linearRGB;solid-color:#ffffff;solid-opacity:1;fill:#ffffff;fill-opacity:1;fill-rule:nonzero;stroke:none;stroke-width:0.26458332;stroke-linecap:round;stroke-linejoin:round;stroke-miterlimit:4;stroke-dasharray:none;stroke-dashoffset:0;stroke-opacity:1;color-rendering:auto;image-rendering:auto;shape-rendering:auto;text-rendering:auto;enable-background:accumulate" d="M 1.0332031,292.19141 A 0.13230489,0.13230489 0 0 0 0.9375,292.23828 c 0,0 -0.16312618,0.19155 -0.328125,0.42969 -0.0824994,0.11907 -0.16590209,0.24993 -0.23046875,0.37891 -0.0645667,0.12897 -0.11523436,0.25213 -0.11523437,0.38085 6e-8,0.42705 0.34910833,0.77735 0.77539062,0.77735 0.4262822,0 0.7734375,-0.3503 0.7734375,-0.77735 0,-0.12872 -0.048715,-0.25188 -0.1132812,-0.38085 -0.064567,-0.12898 -0.1479694,-0.25984 -0.2304688,-0.37891 -0.1649988,-0.23814 -0.3300781,-0.42969 -0.3300781,-0.42969 a 0.13230489,0.13230489 0 0 0 -0.1054688,-0.0469 z m 0.00586,0.34961 c 0.057317,0.0699 0.107061,0.1246 0.2128906,0.27734 0.077985,0.11255 0.1551412,0.23425 0.2109375,0.3457 0.055796,0.11146 0.085937,0.21451 0.085937,0.26367 0,0.28458 -0.226985,0.51172 -0.5097656,0.51172 -0.28278067,0 -0.50976559,-0.22714 -0.50976562,-0.51172 0,-0.0492 0.0301412,-0.15221 0.0859375,-0.26367 0.0557963,-0.11145 0.13295291,-0.23315 0.2109375,-0.3457 0.1060746,-0.15309 0.15566812,-0.20755 0.21289062,-0.27734 z"></path></g></svg>