<svg height='100px' width='100px'  fill="#000000" xmlns="http://www.w3.org/2000/svg" data-name="Layer 1" viewBox="0 0 128 128" x="0px" y="0px"><title>construction-work solid</title><path d="M127.14778,16.08614a9.92554,9.92554,0,0,0-5.59865-5.28648l-5.63307-2.138a10.08128,10.08128,0,0,0-3.59024-.6599h-.00018a9.97454,9.97454,0,0,0-9.35875,6.34592L95.31667,33.87025a3.9999,3.9999,0,0,0,2.22343,5.1671c.10028.04059.15216.12335.12335.19677a.2561.2561,0,0,1-.23492.13208.30006.30006,0,0,1-.10211-.01837,3.99643,3.99643,0,0,0-5.06161,2.31039l-1.78948,4.56658A6.94058,6.94058,0,0,0,94.058,55.06733l-3.364,8.93359h4.27414l2.821-7.49165,5.40743,2.0524-2.04814,5.43925h4.27414l1.5526-4.12329a7.02975,7.02975,0,0,0,7.84772-4.31982l1.78954-4.56671a4,4,0,0,0-2.30735-5.2c-.03479-.01318-.07727-.02832-.12121-.0434a.19732.19732,0,0,1-.09192-.09393.10534.10534,0,0,1-.00232-.09338.25892.25892,0,0,1,.23742-.13507.28284.28284,0,0,1,.06915.00867q.06171.02554.12421.04938a3.99645,3.99645,0,0,0,5.14388-2.28018l7.65027-19.52261A9.79165,9.79165,0,0,0,127.14778,16.08614Z"></path><path d="M108.00016,68.00086H20.00086a8.01053,8.01053,0,0,0-7.99994,7.99988v43.99937A8.01057,8.01057,0,0,0,20.00086,128h87.9993a8.01057,8.01057,0,0,0,7.99994-7.99989V76.00075A8.01053,8.01053,0,0,0,108.00016,68.00086ZM41.00069,106.00032a8.99993,8.99993,0,0,1-17.99986,0V90.00055a8.99993,8.99993,0,0,1,17.99986,0Zm29.99976,0a8.99993,8.99993,0,0,1-17.99986,0V90.00055a8.99993,8.99993,0,0,1,17.99986,0Zm29.99976,0a8.99993,8.99993,0,0,1-17.99986,0V90.00055a8.99993,8.99993,0,0,1,17.99986,0Z"></path><path d="M92.00029,85.00062a5.00176,5.00176,0,0,0-5,4.99993v15.99977a5,5,0,0,0,9.99992,0V90.00055A5.00176,5.00176,0,0,0,92.00029,85.00062Z"></path><path d="M32.00077,85.00062a5.00176,5.00176,0,0,0-5,4.99993v15.99977a5,5,0,0,0,9.99992,0V90.00055A5.00176,5.00176,0,0,0,32.00077,85.00062Z"></path><path d="M62.00053,85.00062a5.00176,5.00176,0,0,0-5,4.99993v15.99977a5,5,0,0,0,9.99992,0V90.00055A5.00176,5.00176,0,0,0,62.00053,85.00062Z"></path><path d="M59.94055,64.00092l4.43-35.60947,9.5399,1.57993a1.8402,1.8402,0,0,0,.33.03,1.98623,1.98623,0,0,0,1.21-.41l9.67992-7.34987.6,2.40994-1.94,1.66a1.984,1.984,0,0,0-.63995,2.01l.62,2.46994-1.94,1.66a1.98379,1.98379,0,0,0-.64,2.00992l.62,2.47-1.94,1.64994a2.02732,2.02732,0,0,0-.64,2.02l.63,2.47-1.94,1.65995a2.00937,2.00937,0,0,0-.65,2.01l.63,2.46994-1.94,1.65a1.9839,1.9839,0,0,0-.64,2.01l.62,2.46994-1.94,1.65a2.03787,2.03787,0,0,0-.64,2.01l.63,2.47994-1.94,1.65a1.908,1.908,0,0,0-.59.87h5.72994l.34-.29a2.00393,2.00393,0,0,0,.63995-2.00992l-.63-2.47,1.94-1.65a1.98379,1.98379,0,0,0,.64-2.00992l-.62-2.47,1.94-1.65995a1.9839,1.9839,0,0,0,.64-2.01l-.62-2.47,1.94-1.65995a2.004,2.004,0,0,0,.63995-2.01l-.63-2.46994,1.94-1.65a1.9839,1.9839,0,0,0,.64-2.01l-.62-2.46994,1.94-1.66a1.98386,1.98386,0,0,0,.64-2.01l-.62-2.47994,1.94-1.65995a1.984,1.984,0,0,0,.63995-2.01l-.81-6.97988a2.01665,2.01665,0,0,0-.68-1.39l.48-4.33-13.82991,4.72a2.06426,2.06426,0,0,1-.65.11,2.10423,2.10423,0,0,1-.25-.02l-13.04988-1.65-1.11,10.41989a1.98471,1.98471,0,0,0,.47,1.5l-4.57,36.74947ZM85.34037,22.08148v.03l-.07.01Z"></path><path d="M89.38032,7.7817l.61-5.55992a2.00274,2.00274,0,0,0-3-1.95,15.96405,15.96405,0,0,1-4.22995,1.54,14.05229,14.05229,0,0,0-11.16989.92c-2.75,1.09-6.11-.97-6.14-.98a1.99172,1.99172,0,0,0-3.05,1.48l-.86,8.11988,12.66994,1.61Z"></path><polygon points="26.312 47.564 32.361 64.001 48.661 64.001 40.588 42.09 26.312 47.564"></polygon><path d="M20.19086,42.81122a3.95635,3.95635,0,0,0,3.01,1.38,3.77872,3.77872,0,0,0,1.43-.27L24.784,43.865,39.1807,38.27125a4.01736,4.01736,0,0,0,1.39-1.93,3.91543,3.91543,0,0,0,2.28.73,3.98307,3.98307,0,0,0,1.43-.27l3.89993-1.52a6.10163,6.10163,0,0,0,3.44-7.77986l-3.89-10.56986a5.98506,5.98506,0,0,0-5.57991-3.92994,5.81565,5.81565,0,0,0-2.14.41l-4.21,1.64a3.99666,3.99666,0,0,0-2.31,2.4,3.90185,3.90185,0,0,0-1.86-.48,3.94286,3.94286,0,0,0-1.43.27L12.34095,24.22146C10.73091,24.79146.361,29.09139.001,44.5012a4.00351,4.00351,0,0,0,2.8,3.91993,3.97971,3.97971,0,0,0,4.5-1.65995c1.26-1.96,5.19-6.71994,9.57994-7.8299ZM3.971,44.59117c.31006-13.66979,9.74-16.61976,9.74-16.61976l17.91984-6.9999,3.57,3.92,2.5-.98-.47-5.12993,4.21-1.64994a1.93874,1.93874,0,0,1,.71-.13l5.7599,11.89979a2.07523,2.07523,0,0,1-1.17,2.65l-3.89,1.52-3.14994-3.71-2.96,1.15.07,4.54992L23.20085,40.19126l-4.7-5.48991C10.18093,34.84131,3.971,44.59117,3.971,44.59117Z"></path></svg>