<svg height='100px' width='100px'  fill="#ffffff" xmlns="http://www.w3.org/2000/svg" version="1" x="0px" y="0px" viewBox="0 0 64 64"><path d="M55 6H25.272a2 2 0 0 0-1.415.586L5.586 24.858a2 2 0 0 0 0 2.828l12.293 12.293-.727 1.754a2 2 0 0 0 1.083 2.613L35 51.29V56a2 2 0 0 0 2 2h18a2 2 0 0 0 2-2V8a2 2 0 0 0-2-2zm0 14.853C53.863 16.436 52.72 11.226 52.9 8H55v12.853zM52.1 8c-.221 4.1 1.58 11.114 2.9 15.972v17.101c-1.531 4.828-2.912 10.66-2.925 14.927h-2.167c.074-5.769.787-8.633 1.48-11.402.744-2.975 1.512-6.05 1.512-12.598 0-5.428-.71-8.384-1.462-11.515C50.681 17.338 49.9 14.083 49.9 8h2.2zm-3 0c0 6.178.793 9.48 1.56 12.672.74 3.083 1.44 5.995 1.44 11.328 0 6.451-.756 9.477-1.488 12.402-.705 2.819-1.43 5.73-1.505 11.598h-3.24c-.17-4.59-1.453-8.928-2.712-13.127C41.995 39.002 40.9 35.346 40.9 32c0-3.17 1.16-6.01 2.504-9.298C45.043 18.693 46.9 14.15 46.9 8h2.2zm-6.436 14.4C41.346 25.625 40.1 28.672 40.1 32c0 3.463 1.112 7.174 2.289 11.104 1.24 4.14 2.506 8.416 2.676 12.896h-2.14c-.02-5.182-2.227-11.23-4.02-16.152-.753-2.063-1.44-3.96-1.905-5.584v-6.289c.417-1.122.988-2.393 1.614-3.78C40.668 19.64 43.224 13.972 42.9 8h3.2c0 5.993-1.826 10.459-3.436 14.4zM37 36.894a193.59 193.59 0 0 0 1.153 3.228c1.772 4.86 3.95 10.837 3.971 15.877h-2.256c-.281-4.43-2.302-8.762-2.868-9.898v-9.207zM42.1 8c.322 5.786-2.194 11.385-4.215 15.866-.313.693-.61 1.355-.885 1.99v-6.002c.03-.067.281-.68.281-.68.833-2.063 2.62-6.972 2.62-11.174h2.2zm-3 0c0 3.352-1.225 7.28-2.1 9.662V8h2.1zM35 21.765c-2.895 5.766-2.982 9.943-3.059 13.997-.068 3.545-.154 6.918-1.981 11.289l-5.78-2.38c4.529-3.394 4.721-7.77 4.942-12.786.23-5.22.494-11.09 5.878-17.227v7.107zM35 8v1.438l-.243.244c-1.577 1.207-2.752 2.155-3.708 3.091L33 8h2zM24.7 8h3.635c-7.34 5.42-7.867 10.29-8.358 15.001-.404 3.865-.797 7.521-4.933 11.406l-3.355-3.27c4.524-2.016 5.013-6.437 5.473-10.723.214-1.983.442-4.008 1.053-5.83L24.7 8zM11.071 30.534L8.69 28.212c3.749-1.214 4.647-4.373 4.706-8.735l3.647-3.703c-.342 1.48-.51 3.03-.675 4.554-.467 4.34-.916 8.436-5.296 10.206zm1.496-10.218c-.202 4.42-1.498 6.45-4.532 7.258L6.7 26.272l5.867-5.956zm3.05 14.65c4.33-4.085 4.755-8.047 5.155-11.882.483-4.63.983-9.417 8.46-14.758.215-.107.461-.326.863-.326h1.03L18.707 37.98l-3.09-3.014zm9.458-5.611c.179 3.739.308 6.51-5.078 10.46l5.016-12.272c.01.636.035 1.244.062 1.812zm-5.637 11.827c6.772-4.586 6.63-7.805 6.437-11.865-.058-1.21-.11-2.466-.004-3.876l4.241-10.376c1.179-1.598 2.604-2.806 4.888-4.56v2.972c-6.14 6.575-6.434 12.831-6.677 18.373-.218 4.946-.42 9.238-5.026 12.459L18.9 42.498l.538-1.316zM30.7 47.355c1.884-4.523 1.976-8.113 2.042-11.578.068-3.59.148-7.279 2.259-12.123v25.471l-4.3-1.77zm6.301.692c.786 1.874 1.86 4.914 2.064 7.953H37v-7.953zM52.875 56c.008-3.456.944-7.988 2.125-12.152V56h-2.125zm-9.773-24.04c.555-5.548 2.012-8.86 3.898-8.86 2.187 0 2.9 5.875 2.9 7.9 0 2.294-1.462 6.4-2.9 6.4-.47 0-.91-.485-1.306-1.442-.85-2.052-1.278-5.94 1.023-8.24a.4.4 0 0 1 .566.565c-1.915 1.914-1.465 5.014-1.281 5.918.312 1.541.858 2.333 1.033 2.404C47.577 36.6 49.1 33.488 49.1 31c0-2.739-.961-7.1-2.1-7.1-1.102 0-2.543 2.547-3.102 8.14-.368 3.678 1.3 9.364 2.859 11.087.275.305.539.473.743.473.709-.417 2.6-7.132 2.6-10.1a.4.4 0 0 1 .8 0c0 2.583-1.847 10.9-3.4 10.9-.445 0-.895-.248-1.336-.736-1.852-2.046-3.426-8.062-3.062-11.704z"></path></svg>