<svg height='100px' width='100px'  fill="#ffffff" xmlns="http://www.w3.org/2000/svg" xmlns:xlink="http://www.w3.org/1999/xlink" version="1.1" x="0px" y="0px" viewBox="0 0 512 512" style="enable-background:new 0 0 512 512;" xml:space="preserve"><g><g><g><g><path d="M372.3,219c-26.2,0-52.3,0-78.5,0c-41.7,0-83.5,0-125.2,0c-9.7,0-19.3,0-29,0c-9.7,0-9.7,15,0,15      c26.2,0,52.3,0,78.5,0c41.7,0,83.5,0,125.2,0c9.7,0,19.3,0,29,0C382,234,382,219,372.3,219L372.3,219z"></path></g></g><g><g><path d="M80,219c-10.8,0-21.6,0-32.4,0c-4.1,0-7.5,3.4-7.5,7.5c0,23.6,0,47.3,0,70.9c0,39.7,0,79.4,0,119.1      c0,11.3,0,22.5,0,33.8c0,5,0.3,10,2,14.8c5.3,14.5,18.7,23.9,34,24.2c16.9,0.3,33.8,0,50.7,0c37.9,0,75.8,0,113.7,0      c40.2,0,80.4,0,120.5,0c23.8,0,47.6,0,71.3,0c16.8,0,31.9-8.1,37.7-24.8c2.9-8.4,1.8-18.8,1.8-27.6c0-36.5,0-73,0-109.5      c0-31.9,0-63.8,0-95.6c0-1.8,0-3.5,0-5.3c0-4.1-3.4-7.5-7.5-7.5c-10.8,0-21.6,0-32.4,0c-9.7,0-9.7,15,0,15c10.8,0,21.6,0,32.4,0      c-2.5-2.5-5-5-7.5-7.5c0,23,0,46,0,69.1c0,39.2,0,78.3,0,117.5c0,11.9,0,23.7,0,35.6c0,2.4,0.2,5-0.1,7.4      c-1.4,10.6-10.6,18.1-21,18.3c-17.4,0.3-34.9,0-52.4,0c-37.5,0-74.9,0-112.4,0c-39.5,0-78.9,0-118.4,0c-24,0-48,0-72,0      c-1.5,0-2.9,0-4.4,0c-10.9-0.2-20.4-8.5-21.1-19.7c-0.4-6.8,0-13.7,0-20.6c0-36.5,0-73.1,0-109.6c0-30.9,0-61.9,0-92.8      c0-1.7,0-3.4,0-5.1c-2.5,2.5-5,5-7.5,7.5c10.8,0,21.6,0,32.4,0C89.6,234,89.7,219,80,219L80,219z"></path></g></g><g><g><path d="M432,143.1c12.2,0,24.4,0,36.5,0c4.4,0,10.5-1.1,12.6,4c1.2,2.9,0.5,7.4,0.5,10.4c0,14.5,0,29,0,43.5      c0,3.8,0.3,7.7,0,11.5c-0.6,7.8-8.5,6.6-14.2,6.6c-11.8,0-23.6,0-35.4,0c-9.7,0-9.7,15,0,15c11.3,0,22.6,0,33.9,0      c9.9,0,19.6,0.3,26.3-8.5c4.3-5.6,4.5-11.7,4.5-18.3c0-15.6,0-31.2,0-46.8c0-4.3,0.3-8.8-0.2-13.1c-1.3-11.4-10.9-19-22-19.2      c-14.1-0.2-28.3,0-42.4,0C422.4,128.1,422.3,143.1,432,143.1L432,143.1z"></path></g></g><g><g><path d="M80,219c-10.8,0-21.6,0-32.4,0c-4.8,0-13,1.7-16.1-2.9c-1.9-2.8-1.1-7.7-1.1-10.8c0-14.5,0-28.9,0-43.4      c0-4-0.3-8.2,0-12.2c0.4-5.6,4.6-6.7,9.2-6.7c13.4,0,26.9,0,40.3,0c9.7,0,9.7-15,0-15c-13.1,0-26.2,0-39.2,0      c-8.7,0-16.8,2-21.8,9.8c-3.6,5.5-3.5,11.4-3.5,17.7c0,15.7,0,31.3,0,47c0,4.6-0.4,9.5,0.4,14C18.1,228.6,28.6,234,40,234      c13.3,0,26.7,0,40,0C89.6,234,89.7,219,80,219L80,219z"></path></g></g><g><g><path d="M372.3,128.1c-26.2,0-52.3,0-78.5,0c-41.7,0-83.5,0-125.2,0c-9.7,0-19.3,0-29,0c-9.7,0-9.7,15,0,15      c26.2,0,52.3,0,78.5,0c41.7,0,83.5,0,125.2,0c9.7,0,19.3,0,29,0C382,143.1,382,128.1,372.3,128.1L372.3,128.1z"></path></g></g><g><g><path d="M372.3,219c-26.2,0-52.3,0-78.5,0c-41.7,0-83.5,0-125.2,0c-9.7,0-19.3,0-29,0c-9.7,0-9.7,15,0,15      c26.2,0,52.3,0,78.5,0c41.7,0,83.5,0,125.2,0c9.7,0,19.3,0,29,0C382,234,382,219,372.3,219L372.3,219z"></path></g></g><g><g><path d="M423.4,270c-6.4,0-12.8,0-19.3,0c-4.9,0-9.8,0-14.6,0c-2.6,0-5.7,0.5-8.2,0c-2.1-0.4-1.5-2.5-1.5-4.8      c0-5.2,0-10.4,0-15.6c0-36.5,0-73.1,0-109.6c0-6.5,0-13.1,0-19.6c0-2.3-0.7-5.8,0-8.1c0.4-1.4,1.1-1.1,2.7-1.1      c3.6-0.1,7.3,0,10.9,0c8.9,0,17.8,0,26.6,0c3.2,0,4.3-0.5,4.4,2.7c0.1,4.3,0,8.5,0,12.8c0,17,0,34,0,51c0,19.3,0,38.6,0,57.9      c0,10.8,0.6,21.8,0,32.6C424.4,269.2,424.6,269.9,423.4,270c-9.6,0.7-9.6,15.7,0,15c10.2-0.7,16-8.2,16.1-18c0-5,0-10,0-15      c0-19,0-37.9,0-56.9c0-19.9,0-39.8,0-59.6c0-6.1,0-12.3,0-18.4c0-5.7,0-11.2-4.3-15.7c-6.4-6.7-16.4-5.2-24.8-5.2      c-9.2,0-18.5-0.1-27.7,0c-10,0.1-17.5,6.2-17.9,16.6c-0.1,3.9,0,7.7,0,11.6c0,38.4,0,76.8,0,115.3c0,9.7-0.4,19.6,0,29.3      c0.4,8.4,6.3,15.2,14.8,16c2.5,0.2,5,0.1,7.5,0.1c9.9,0,19.7,0,29.6,0c2.2,0,4.4,0,6.6,0C433.1,285,433.1,270,423.4,270z"></path></g></g><g><g><path d="M131.1,270c-6.4,0-12.8,0-19.3,0c-4.9,0-9.8,0-14.6,0c-2.6,0-5.7,0.5-8.2,0c-2.1-0.4-1.5-2.5-1.5-4.8      c0-5.2,0-10.4,0-15.6c0-36.5,0-73.1,0-109.6c0-6.5,0-13.1,0-19.6c0-2.3-0.7-5.8,0-8.1c0.4-1.4,1.1-1.1,2.7-1.1      c3.6-0.1,7.3,0,10.9,0c8.9,0,17.8,0,26.6,0c3.2,0,4.3-0.5,4.4,2.7c0.1,4.3,0,8.5,0,12.8c0,17,0,34,0,51c0,19.3,0,38.6,0,57.9      c0,10.8,0.6,21.8,0,32.6C132.1,269.2,132.2,269.9,131.1,270c-9.6,0.7-9.6,15.7,0,15c10.2-0.7,16-8.2,16.1-18c0-5,0-10,0-15      c0-19,0-37.9,0-56.9c0-19.9,0-39.8,0-59.6c0-6.1,0-12.3,0-18.4c0-5.7,0-11.2-4.3-15.7c-6.4-6.7-16.4-5.2-24.8-5.2      c-9.2,0-18.5-0.1-27.7,0c-10,0.1-17.5,6.2-17.9,16.6c-0.1,3.9,0,7.7,0,11.6c0,38.4,0,76.8,0,115.3c0,9.7-0.4,19.6,0,29.3      c0.4,8.4,6.3,15.2,14.8,16c2.5,0.2,5,0.1,7.5,0.1c9.9,0,19.7,0,29.6,0c2.2,0,4.4,0,6.6,0C140.7,285,140.7,270,131.1,270z"></path></g></g></g><g><g><path d="M405.3,103.6c0-15.5,0-31,0-46.5c0-9.7-15-9.7-15,0c0,15.5,0,31,0,46.5     C390.3,113.3,405.3,113.3,405.3,103.6L405.3,103.6z"></path></g></g><g><g><path d="M113,103.6c0-15.5,0-31,0-46.5c0-9.7-15-9.7-15,0c0,15.5,0,31,0,46.5C98,113.3,113,113.3,113,103.6     L113,103.6z"></path></g></g><g><g><path d="M426.5,49.6c-12.3,0-24.5,0-36.8,0c-29.1,0-58.2,0-87.2,0c-34.3,0-68.6,0-102.9,0c-27.9,0-55.8,0-83.8,0     c-7.9,0-15.8,0-23.8,0c-4.2,0-10.2,1.2-10.4-4.7c-0.1-3.8,0.2-6.9,4.5-7.2c1.7-0.1,3.4,0,5.1,0c7.7,0,15.3,0,23,0     c27.6,0,55.2,0,82.9,0c34.3,0,68.6,0,102.8,0c29.3,0,58.7,0,88,0c9.2,0,18.3,0,27.5,0c3.5,0,7.4-0.5,10.9,0     C431.8,38.4,432.2,49.2,426.5,49.6c-9.6,0.6-9.7,15.6,0,15c13.2-0.8,19.6-11.4,18.8-23.7c-0.6-10.4-8.7-17.8-19-18.2     c-4.5-0.2-9.1,0-13.6,0c-25.1,0-50.2,0-75.4,0c-35.2,0-70.5,0-105.7,0c-32.3,0-64.6,0-96.9,0c-16.2,0-32.4-0.3-48.5,0     c-7.2,0.1-14,3.5-17.4,10.1c-5.1,9.7-2.2,24.4,7.9,29.7c5.4,2.8,11.7,2.2,17.5,2.2c22.9,0,45.7,0,68.6,0c34.7,0,69.4,0,104.1,0     c33.4,0,66.7,0,100.1,0c18.9,0,37.8,0,56.7,0c0.9,0,1.8,0,2.6,0C436.1,64.6,436.2,49.6,426.5,49.6z"></path></g></g></g><g><g><g><path d="M270.4,358.6c0,13.3,0,26.6,0,39.9c2.5-2.5,5-5,7.5-7.5c-14.6,0-29.2,0-43.8,0c2.5,2.5,5,5,7.5,7.5     c0-13.3,0-26.6,0-39.9c0-9.7-15-9.7-15,0c0,13.3,0,26.6,0,39.9c0,4.1,3.4,7.5,7.5,7.5c14.6,0,29.2,0,43.8,0     c4.1,0,7.5-3.4,7.5-7.5c0-13.3,0-26.6,0-39.9C285.4,349,270.4,349,270.4,358.6L270.4,358.6z"></path></g></g><g><g><path d="M241.6,314.8c0-13.3,0-26.6,0-39.9c-2.5,2.5-5,5-7.5,7.5c14.6,0,29.2,0,43.8,0c-2.5-2.5-5-5-7.5-7.5     c0,13.3,0,26.6,0,39.9c0,9.7,15,9.7,15,0c0-13.3,0-26.6,0-39.9c0-4.1-3.4-7.5-7.5-7.5c-14.6,0-29.2,0-43.8,0     c-4.1,0-7.5,3.4-7.5,7.5c0,13.3,0,26.6,0,39.9C226.6,324.5,241.6,324.5,241.6,314.8L241.6,314.8z"></path></g></g><g><g><path d="M277.9,322.3c13.3,0,26.6,0,39.9,0c-2.5-2.5-5-5-7.5-7.5c0,14.6,0,29.2,0,43.8c2.5-2.5,5-5,7.5-7.5     c-13.3,0-26.6,0-39.9,0c-9.7,0-9.7,15,0,15c13.3,0,26.6,0,39.9,0c4.1,0,7.5-3.4,7.5-7.5c0-14.6,0-29.2,0-43.8     c0-4.1-3.4-7.5-7.5-7.5c-13.3,0-26.6,0-39.9,0C268.3,307.3,268.2,322.3,277.9,322.3L277.9,322.3z"></path></g></g><g><g><path d="M234.1,351.1c-13.3,0-26.6,0-39.9,0c2.5,2.5,5,5,7.5,7.5c0-14.6,0-29.2,0-43.8c-2.5,2.5-5,5-7.5,7.5     c13.3,0,26.6,0,39.9,0c9.7,0,9.7-15,0-15c-13.3,0-26.6,0-39.9,0c-4.1,0-7.5,3.4-7.5,7.5c0,14.6,0,29.2,0,43.8     c0,4.1,3.4,7.5,7.5,7.5c13.3,0,26.6,0,39.9,0C243.7,366.1,243.8,351.1,234.1,351.1L234.1,351.1z"></path></g></g></g></svg>