<svg height='100px' width='100px'  fill="#ffffff" xmlns="http://www.w3.org/2000/svg" xmlns:xlink="http://www.w3.org/1999/xlink" version="1.1" x="0px" y="0px" viewBox="0 0 100 100" enable-background="new 0 0 100 100" xml:space="preserve"><g><path d="M50.729,68.632c-1.349-3.122-3.837-5.532-7-6.783c-1.501-0.597-3.078-0.899-4.685-0.899c-5.262,0-9.912,3.162-11.845,8.054   c-2.587,6.53,0.623,13.945,7.152,16.536c1.506,0.592,3.083,0.895,4.688,0.895c5.262,0,9.911-3.16,11.846-8.053   C52.137,75.219,52.086,71.755,50.729,68.632z M39.043,64.683c1.133,0,2.245,0.213,3.315,0.636c2.235,0.886,3.989,2.589,4.946,4.796   c0.708,1.634,0.909,3.4,0.607,5.115l-16.527-6.26C33.003,66.329,35.861,64.683,39.043,64.683z M39.038,82.7   c-1.134,0-2.25-0.214-3.315-0.636c-3.921-1.553-6.139-5.573-5.597-9.579l16.381,6.204C44.863,81.163,42.107,82.7,39.038,82.7z"></path><path d="M74.403,70.858L59.921,51.515c-1.306-1.742-3.253-2.97-5.489-3.459c-2.81-0.615-5.806,0.005-8.016,1.659   c-4.262,3.193-5.251,9.387-2.154,13.524l14.484,19.344c1.375,1.838,3.389,3.123,5.662,3.622c2.822,0.618,5.751-0.01,8.042-1.724   c1.979-1.484,3.335-3.796,3.725-6.348C76.578,75.502,75.947,72.919,74.403,70.858z M48.658,52.702   c1.35-1.011,3.211-1.385,4.973-0.998c1.365,0.299,2.534,1.024,3.301,2.047l6.099,8.144l-9.683,7.248L47.251,61   C45.368,58.484,46.011,54.683,48.658,52.702z M72.487,77.572c-0.245,1.588-1.073,3.019-2.278,3.919   c-1.417,1.063-3.239,1.453-5.004,1.065c-1.398-0.306-2.632-1.091-3.47-2.211l-6.149-8.214l9.682-7.25l6.152,8.216   C72.354,74.351,72.737,75.939,72.487,77.572z"></path></g><g transform="translate(0,-1004.3622)"><g><path d="M78.987,1092.995H23.346c-2.807,0-5.004-2.199-5.004-5.007v-45.595c0-0.514,0.208-1.007,0.567-1.369    c0.364-0.363,0.855-0.565,1.369-0.565h0.002l34.193,0.087l-34.524-7.538c-0.932-0.16-1.607-0.964-1.607-1.909v-10.472    c0-2.807,2.197-5.006,5.004-5.006c0.079,0,0.155,0.004,0.228,0.012l55.542,9.025c2.743,0.065,4.88,2.239,4.88,5.004v58.326    C83.996,1090.796,81.797,1092.995,78.987,1092.995z M22.212,1044.332v43.656c0,0.657,0.479,1.136,1.134,1.136h55.642    c0.657,0,1.137-0.479,1.137-1.136v-58.326c0-0.657-0.479-1.134-1.137-1.134c-0.073,0-0.152-0.004-0.223-0.013l-55.508-9.021    c-0.61,0.042-1.045,0.505-1.045,1.131v8.841l45.143,10.991c0.994,0.169,1.688,1.072,1.604,2.074    c-0.088,1.001-0.926,1.77-1.931,1.77h-0.003L22.212,1044.332z"></path></g></g></svg>